<svg width="29" height="11" viewBox="0 0 29 11" fill="none" xmlns="http://www.w3.org/2000/svg">
<path d="M5.21541e-07 10.0918L0.456001 -0.000203371H1.488L4.752 9.2638H4.812L8.088 -0.000203371H9.12L9.576 10.0918H8.82L8.412 1.0918H8.364L5.304 10.0918H4.26L1.212 1.0918H1.152L0.756001 10.0918H5.21541e-07ZM10.1327 10.0918V9.4318H11.0087C11.2727 9.4318 11.4647 9.4038 11.5847 9.3478C11.7127 9.2838 11.7967 9.1838 11.8367 9.0478C11.8767 8.9038 11.8967 8.7238 11.8967 8.5078V-0.000203371H12.6407V8.5078C12.6487 8.8518 12.6207 9.1318 12.5567 9.3478C12.4927 9.5558 12.3967 9.7158 12.2687 9.8278C12.1487 9.9318 11.9887 10.0038 11.7887 10.0438C11.5967 10.0758 11.3687 10.0918 11.1047 10.0918H10.1327ZM14.2671 10.0918V-0.000203371H16.8351C17.0591 -0.000203371 17.3191 0.00379658 17.6151 0.0117965C17.9111 0.0197964 18.2111 0.0557964 18.5151 0.119797C18.8271 0.175796 19.1111 0.275796 19.3671 0.419796C19.6231 0.563796 19.8311 0.771796 19.9911 1.0438C20.1511 1.3078 20.2311 1.6598 20.2311 2.0998V3.7438C20.2311 4.1918 20.1591 4.5558 20.0151 4.8358C19.8711 5.1158 19.6751 5.3358 19.4271 5.4958C19.1791 5.6478 18.9031 5.7558 18.5991 5.8198C18.3031 5.8838 17.9991 5.9238 17.6871 5.9398C17.3751 5.9558 17.0751 5.9638 16.7871 5.9638H15.0231V10.0918H14.2671ZM15.0231 5.3038H16.8111C17.4831 5.2958 18.0111 5.2398 18.3951 5.1358C18.7871 5.0318 19.0631 4.8598 19.2231 4.6198C19.3831 4.3798 19.4671 4.0638 19.4751 3.6718V2.1478C19.4671 1.8438 19.3951 1.5958 19.2591 1.4038C19.1311 1.2118 18.9591 1.0678 18.7431 0.971796C18.5271 0.875797 18.2911 0.811797 18.0351 0.779797C17.7791 0.739797 17.5231 0.719797 17.2671 0.719797C17.0111 0.711796 16.7871 0.703796 16.5951 0.695796H15.0231V5.3038ZM21.3335 10.0918V-0.000203371H24.3695C25.1055 -0.000203371 25.7375 0.0597966 26.2655 0.179796C26.8015 0.299796 27.2375 0.507796 27.5735 0.803796C27.9095 1.0998 28.1575 1.5038 28.3175 2.0158C28.4775 2.5278 28.5575 3.1798 28.5575 3.9718V6.1078C28.5575 6.8918 28.4735 7.5438 28.3055 8.0638C28.1375 8.5758 27.8815 8.9798 27.5375 9.2758C27.2015 9.5718 26.7695 9.7838 26.2415 9.9118C25.7215 10.0318 25.0975 10.0918 24.3695 10.0918H21.3335ZM22.0895 9.3958H24.3695C25.2655 9.3958 25.9575 9.2918 26.4455 9.0838C26.9415 8.8678 27.2895 8.5278 27.4895 8.0638C27.6975 7.5918 27.8015 6.9798 27.8015 6.2278V3.8518C27.8015 3.0918 27.7015 2.4798 27.5015 2.0158C27.3015 1.5518 26.9535 1.2158 26.4575 1.0078C25.9615 0.799796 25.2615 0.695796 24.3575 0.695796H22.0895V9.3958Z" fill="white"/>
</svg>
